name C:\Users\antoi\Documents\MyRepositories\upper-imu-dc\Results\main_tracking\Case_80\kinematics.mot
datacolumns 10
datarows 37
range 1.70000000 2.06000000
endheader 
time	clav_prot	clav_elev	scapula_abduction	scapula_elevation	scapula_upward_rot	scapula_winging	plane_elv	shoulder_elv	axial_rot	
          1.70000000	        -23.81645290	         16.13338486	         -7.17804290	          5.93275401	         35.43155823	         -2.73921398	        -20.17228950	         -3.36440832	         56.88625906	
          1.71000000	        -23.81489232	         16.14277725	         -7.18621676	          5.94079324	         35.42542195	         -2.73588619	        -20.10831310	         -3.38529761	         56.71608921	
          1.72000000	        -23.81073474	         16.15118769	         -7.19500126	          5.94958412	         35.41236889	         -2.73038497	        -20.04421395	         -3.40588188	         56.54616190	
          1.73000000	        -23.80426734	         16.15802307	         -7.20507250	          5.95878575	         35.39182786	         -2.72265716	        -19.98042984	         -3.42571465	         56.37605420	
          1.74000000	        -23.79582848	         16.16256143	         -7.21713329	          5.96796398	         35.36321455	         -2.71266966	        -19.91747383	         -3.44425227	         56.20527638	
          1.75000000	        -23.78576307	         16.16396317	         -7.23184438	          5.97660453	         35.32592181	         -2.70039988	        -19.85587419	         -3.46083389	         56.03333270	
          1.76000000	        -23.77441238	         16.16128770	         -7.24980906	          5.98412465	         35.27932626	         -2.68583373	        -19.79614134	         -3.47471479	         55.85975367	
          1.77000000	        -23.76211565	         16.15350455	         -7.27157467	          5.98987956	         35.22279717	         -2.66896610	        -19.73871527	         -3.48511149	         55.68414492	
          1.78000000	        -23.74915042	         16.13951864	         -7.29754796	          5.99318757	         35.15568244	         -2.64978578	        -19.68391990	         -3.49119623	         55.50623165	
          1.79000000	        -23.73573076	         16.11816546	         -7.32798847	          5.99332687	         35.07730879	         -2.62827487	        -19.63187467	         -3.49212716	         55.32594417	
          1.80000000	        -23.72198144	         16.08823721	         -7.36297795	          5.98955676	         34.98697966	         -2.60440010	        -19.58250858	         -3.48708832	         55.14340015	
          1.81000000	        -23.70792489	         16.04851287	         -7.40240912	          5.98113936	         34.88398150	         -2.57810713	        -19.53551625	         -3.47532381	         54.95894508	
          1.82000000	        -23.69346715	         15.99779575	         -7.44597176	          5.96736556	         34.76759687	         -2.54931550	        -19.49033554	         -3.45616077	         54.77317238	
          1.83000000	        -23.67840815	         15.93494106	         -7.49316860	          5.94756984	         34.63712883	         -2.51792095	        -19.44617929	         -3.42903404	         54.58688938	
          1.84000000	        -23.66245801	         15.85888341	         -7.54333954	          5.92114378	         34.49192965	         -2.48379982	        -19.40207758	         -3.39349724	         54.40107337	
          1.85000000	        -23.64526230	         15.76865917	         -7.59569507	          5.88754416	         34.33143457	         -2.44681701	        -19.35694379	         -3.34922202	         54.21680539	
          1.86000000	        -23.62643822	         15.66341725	         -7.64936153	          5.84629109	         34.15519817	         -2.40683796	        -19.30966553	         -3.29598614	         54.03518060	
          1.87000000	        -23.60562554	         15.54241697	         -7.70344518	          5.79695543	         33.96293198	         -2.36374470	        -19.25922885	         -3.23365617	         53.85718630	
          1.88000000	        -23.58253884	         15.40502203	         -7.75710355	          5.73914445	         33.75453412	         -2.31745044	        -19.20484493	         -3.16215605	         53.68357862	
          1.89000000	        -23.55701561	         15.25069947	         -7.80961994	          5.67249286	         33.53010996	         -2.26791014	        -19.14606800	         -3.08142860	         53.51476849	
          1.90000000	        -23.52905462	         15.07903144	         -7.86047237	          5.59666478	         33.28998709	         -2.21512658	        -19.08288777	         -2.99140306	         53.35073230	
          1.91000000	        -23.49883899	         14.88971010	         -7.90938407	          5.51134909	         33.03470614	         -2.15914959	        -19.01579013	         -2.89194142	         53.19095564	
          1.92000000	        -23.46673840	         14.68258870	         -7.95634891	          5.41629263	         32.76503398	         -2.10007283	        -18.94576149	         -2.78285090	         53.03442673	
          1.93000000	        -23.43329710	         14.45763793	         -8.00161286	          5.31127465	         32.48193039	         -2.03802775	        -18.87427111	         -2.66383235	         52.87966100	
          1.94000000	        -23.39920686	         14.21499135	         -8.04566116	          5.19614299	         32.18653616	         -1.97317153	        -18.80320688	         -2.53448526	         52.72477691	
          1.95000000	        -23.36525366	         13.95515610	         -8.08923999	          5.07097037	         31.88017270	         -1.90566025	        -18.73473810	         -2.39440304	         52.56762366	
          1.96000000	        -23.33226972	         13.67906675	         -8.13332707	          4.93610505	         31.56429905	         -1.83563424	        -18.67117552	         -2.24321614	         52.40584538	
          1.97000000	        -23.30112214	         13.38781253	         -8.17895799	          4.79197478	         31.24049861	         -1.76325317	        -18.61497919	         -2.08052954	         52.23702326	
          1.98000000	        -23.27265901	         13.08279065	         -8.22725774	          4.63921441	         30.91041805	         -1.68866568	        -18.56858469	         -1.90599741	         52.05872588	
          1.99000000	        -23.24764644	         12.76581114	         -8.27938522	          4.47874991	         30.57575107	         -1.61200461	        -18.53425488	         -1.71943450	         51.86868472	
          2.00000000	        -23.22674548	         12.43905949	         -8.33646504	          4.31177505	         30.23822813	         -1.53340521	        -18.51398780	         -1.52084544	         51.66486812	
          2.01000000	        -23.21048589	         12.10493381	         -8.39947033	          4.13964256	         29.89957742	         -1.45302378	        -18.50945162	         -1.31042464	         51.44556799	
          2.02000000	        -23.19924658	         11.76599026	         -8.46915242	          3.96382633	         29.56152235	         -1.37105472	        -18.52191567	         -1.08862775	         51.20945981	
          2.03000000	        -23.19324457	         11.42485199	         -8.54600233	          3.78586497	         29.22573856	         -1.28773493	        -18.55220490	         -0.85616378	         50.95563700	
          2.04000000	        -23.19252617	         11.08412072	         -8.63021207	          3.60730496	         28.89382280	         -1.20334638	        -18.60066161	         -0.61399613	         50.68364350	
          2.05000000	        -23.19696073	         10.74626729	         -8.72162015	          3.42962434	         28.56727941	         -1.11821945	        -18.66711168	         -0.36333187	         50.39350827	
          2.06000000	        -23.20624170	         10.41351580	         -8.81966067	          3.25414818	         28.24752127	         -1.03273411	        -18.75084646	         -0.10558077	         50.08578223	
